<?xml version="1.0" encoding="utf-8"?>
<!-- Generator: Adobe Illustrator 23.0.0, SVG Export Plug-In . SVG Version: 6.00 Build 0)  -->
<svg version="1.1" id="图层_1" xmlns="http://www.w3.org/2000/svg" xmlns:xlink="http://www.w3.org/1999/xlink" x="0px" y="0px"
	 viewBox="0 0 21 19.5" style="enable-background:new 0 0 21 19.5;" xml:space="preserve">
<style type="text/css">
	.st0{fill:#26E3FF;}
</style>
<title>chat</title>
<g id="bdef7706-fbc5-401f-8da7-e75688db1011">
	<g id="fe01aa5e-abe4-4d53-8e8f-2fbb7af7eff1">
		<path class="st0" d="M3.4,0.4C5.5,0.1,7.7,0,9.8,0c2.1,0,4.2,0.1,6.3,0.4c1.9,0.3,3.3,1.8,3.4,3.7l-1-0.2c-2.8-0.2-5.7-0.2-8.5,0
			C7.7,4.2,6,6.1,6,8.4v4.2c0,1.7,0.9,3.2,2.4,4l-2.6,2.7c-0.3,0.3-0.8,0.3-1.1,0l-0.2-0.5v-4.1H3.4c-2-0.3-3.4-2-3.4-4V4.4
			C0,2.4,1.4,0.7,3.4,0.4z"/>
		<path class="st0" d="M14.3,5.3h-4.1c-1.5,0.2-2.7,1.5-2.7,3v4.2c-0.1,1.6,1.1,2.9,2.7,3h3.7l2.8,2.8c0.3,0.3,0.8,0.3,1.1,0
			c0.1-0.1,0.2-0.2,0.2-0.3v-2.4h0.3c1.6-0.1,2.8-1.4,2.7-3V8.4c0-1.5-1.2-2.8-2.7-3C17,5.3,15.6,5.2,14.3,5.3z"/>
	</g>
</g>
</svg>
