<svg xmlns="http://www.w3.org/2000/svg" viewBox="0 0 21 19.5"><title>chat</title><g id="bdef7706-fbc5-401f-8da7-e75688db1011" data-name="图层 2"><g id="fe01aa5e-abe4-4d53-8e8f-2fbb7af7eff1" data-name="图层 1"><path d="M3.4.4A44.9,44.9,0,0,1,9.8,0a44.4,44.4,0,0,1,6.3.4,4,4,0,0,1,3.4,3.7l-1-.2a60.3,60.3,0,0,0-8.5,0A4.5,4.5,0,0,0,6,8.4v4.2a4.4,4.4,0,0,0,2.4,4L5.8,19.3a.8.8,0,0,1-1.1,0l-.2-.5V14.7H3.4a4,4,0,0,1-3.4-4V4.4A4,4,0,0,1,3.4.4Z"/><path d="M14.3,5.3H10.2a3,3,0,0,0-2.7,3v4.2a2.9,2.9,0,0,0,2.7,3h3.7l2.8,2.8a.8.8,0,0,0,1.1,0A.8.8,0,0,0,18,18V15.6h.3a2.9,2.9,0,0,0,2.7-3V8.4a3,3,0,0,0-2.7-3A26.7,26.7,0,0,0,14.3,5.3Z"/></g></g></svg>