<svg xmlns="http://www.w3.org/2000/svg" viewBox="0 0 330 61.7"><defs><style>.f9ce91e0-6f2f-479e-a2d8-58e1d159256c{fill:#33d9ff;}</style></defs><title>logo</title><g id="f3155721-5e19-43b3-a497-ae4379ee4ee1" data-name="图层 2"><g id="bcd65e06-e311-405c-9701-304800be5ccf" data-name="图层 1"><path id="ea61cf6c-a7b5-4915-88a0-52325e23ed85" data-name="grid_logo" class="f9ce91e0-6f2f-479e-a2d8-58e1d159256c" d="M233.8,27.7,229,36l-1.7,1H185.5l-1.7-3,4.8-8.3,1.8-1h41.7ZM252.8,0H186.1l-1.7,1-6.6,11.3-7.1,12.4L163.6,37l-7.1,12.4-5.4,9.3,1.7,3h66.6l1.8-1,4.8-8.3-1.7-3H174.2l-1.8-3,5.4-9.4L185,24.7l6.5-11.4,1.8-1H248l1.7-1L254.5,3Zm-117,5.7-1.7,1-5.6,9.7-5.8,10L117,36.3l-4.1,7,1.8,3h9.6l1.7-1,5.2-9,5.8-9.9,5.7-10,4.5-7.7-1.8-3ZM167.6,0l-1.7,1-6.6,11.3-7.1,12.4L145.1,37l-6.6,11.4-1.7,1H98.6l-1.7-3,5.4-9.4,7.1-12.3,7.2-12.4L122,3l-1.8-3h-9.6l-1.7,1-6.6,11.3L95.2,24.7,88,37,80.9,49.4l-5.4,9.3,1.8,3h66.6l1.7-1,6.6-11.3L159.3,37l7.1-12.3,7.2-12.4L179,3l-1.8-3ZM101.7,0l1.7,3L98,12.3,90.9,24.7,83.8,37,76.7,49.4,70.1,60.7l-1.7,1H1.7L0,58.7l5.4-9.3L12.5,37l7.1-12.3,7.2-12.4L33.3,1l1.8-1Zm-25,24.7,5.4-9.4-1.8-3H42.2l-1.7,1.1L33.9,24.7,26.8,37l-5.4,9.4,1.7,3H61.3l1.7-1L69.5,37ZM289.1,41.3,277.6,8.2,274,7.9l-6.3,10.9v1.6L279,53.5l3.6.3,6-10.2.3-.6ZM261.7,0l-1.8,1-6.5,11.3-7.2,12.4L239.1,37,232,49.4l-5.4,9.3,1.7,3H238l1.7-1,6.5-11.3L253.4,37l7.1-12.3,7.1-12.4L273,3l-1.7-3Zm48.7,37,7.1-12.3,7.1-12.4L330,3l-1.7-3h-9.6l-1.8,1-6.5,11.3-7.1,12.4L296.1,37l-5.3,9.3L289,49.4l-5.4,9.3,1.7,3H295l1.7-1,6.6-11.3Z"/></g></g></svg>