<?xml version="1.0" encoding="utf-8"?>
<!-- Generator: Adobe Illustrator 23.0.0, SVG Export Plug-In . SVG Version: 6.00 Build 0)  -->
<svg version="1.1" id="图层_1" xmlns="http://www.w3.org/2000/svg" xmlns:xlink="http://www.w3.org/1999/xlink" x="0px" y="0px"
	 viewBox="0 0 330 61.7" style="enable-background:new 0 0 330 61.7;" xml:space="preserve">
<style type="text/css">
	.st0{fill:#2D2D2D;}
</style>
<title>logo</title>
<g id="f3155721-5e19-43b3-a497-ae4379ee4ee1">
	<g id="bcd65e06-e311-405c-9701-304800be5ccf">
		<path id="ea61cf6c-a7b5-4915-88a0-52325e23ed85" class="st0" d="M233.8,27.7L229,36l-1.7,1h-41.8l-1.7-3l4.8-8.3l1.8-1h41.7
			L233.8,27.7z M252.8,0h-66.7l-1.7,1l-6.6,11.3l-7.1,12.4L163.6,37l-7.1,12.4l-5.4,9.3l1.7,3h66.6l1.8-1l4.8-8.3l-1.7-3h-50.1
			l-1.8-3l5.4-9.4l7.2-12.3l6.5-11.4l1.8-1H248l1.7-1l4.8-8.3L252.8,0z M135.8,5.7l-1.7,1l-5.6,9.7l-5.8,10l-5.7,9.9l-4.1,7l1.8,3
			h9.6l1.7-1l5.2-9l5.8-9.9l5.7-10l4.5-7.7l-1.8-3H135.8z M167.6,0l-1.7,1l-6.6,11.3l-7.1,12.4L145.1,37l-6.6,11.4l-1.7,1H98.6
			l-1.7-3l5.4-9.4l7.1-12.3l7.2-12.4L122,3l-1.8-3h-9.6l-1.7,1l-6.6,11.3l-7.1,12.4L88,37l-7.1,12.4l-5.4,9.3l1.8,3h66.6l1.7-1
			l6.6-11.3l7.1-12.4l7.1-12.3l7.2-12.4L179,3l-1.8-3H167.6z M101.7,0l1.7,3L98,12.3l-7.1,12.4L83.8,37l-7.1,12.4l-6.6,11.3l-1.7,1
			H1.7l-1.7-3l5.4-9.3L12.5,37l7.1-12.3l7.2-12.4L33.3,1l1.8-1H101.7z M76.7,24.7l5.4-9.4l-1.8-3H42.2l-1.7,1.1l-6.6,11.3L26.8,37
			l-5.4,9.4l1.7,3h38.2l1.7-1L69.5,37L76.7,24.7z M289.1,41.3L277.6,8.2L274,7.9l-6.3,10.9v1.6L279,53.5l3.6,0.3l6-10.2l0.3-0.6
			L289.1,41.3z M261.7,0l-1.8,1l-6.5,11.3l-7.2,12.4L239.1,37L232,49.4l-5.4,9.3l1.7,3h9.7l1.7-1l6.5-11.3l7.2-12.4l7.1-12.3
			l7.1-12.4L273,3l-1.7-3H261.7z M310.4,37l7.1-12.3l7.1-12.4L330,3l-1.7-3h-9.6l-1.8,1l-6.5,11.3l-7.1,12.4L296.1,37l-5.3,9.3
			l-1.8,3.1l-5.4,9.3l1.7,3h9.7l1.7-1l6.6-11.3L310.4,37z"/>
	</g>
</g>
</svg>
